<?xml version="1.0" encoding="UTF-8" standalone="no"?>
<svg width="225px" height="61px" viewBox="0 0 225 61" version="1.1" xmlns="http://www.w3.org/2000/svg" xmlns:xlink="http://www.w3.org/1999/xlink" xmlns:sketch="http://www.bohemiancoding.com/sketch/ns">
    <!-- Generator: Sketch 3.2.2 (9983) - http://www.bohemiancoding.com/sketch -->
    <title>fb</title>
    <desc>Created with Sketch.</desc>
    <defs></defs>
    <g id="Page-1" stroke="none" stroke-width="1" fill="none" fill-rule="evenodd" sketch:type="MSPage">
        <g id="com" sketch:type="MSArtboardGroup" transform="translate(-237.000000, -148.000000)">
            <g id="fb" sketch:type="MSLayerGroup" transform="translate(237.000000, 148.556606)">
                <rect id="Rectangle-29" fill="#3C599C" sketch:type="MSShapeGroup" x="0" y="0" width="225" height="60"></rect>
                <g id="Fill-10-+-Fill-11" transform="translate(0.000000, 0.281714)" sketch:type="MSShapeGroup">
                    <path d="M59.9457143,29.996 C59.9457143,46.4068571 46.6422857,59.7102857 30.2314286,59.7102857 C13.8205714,59.7102857 0.517142857,46.4068571 0.517142857,29.996 C0.517142857,13.5851429 13.8205714,0.281714286 30.2314286,0.281714286 C46.6422857,0.281714286 59.9457143,13.5851429 59.9457143,29.996" id="Fill-10" fill="#3C599C"></path>
                    <path d="M38.2794286,13.5702857 L38.2794286,19.0394286 C38.2794286,19.0394286 34.248,18.6377143 33.2382857,20.1828571 C32.6862857,21.0274286 33.0137143,23.4994286 32.9651429,25.2754286 L38.312,25.2754286 C37.86,27.3514286 37.5365714,28.7588571 37.204,30.5554286 L32.9348571,30.5554286 L32.9348571,47.548 L25.5274286,47.548 C25.5291429,42.3097143 25.5262857,36.1982857 25.5274286,30.6222857 L22.3748571,30.6222857 L22.3748571,25.2754286 L25.4925714,25.2754286 C25.6525714,21.3657143 25.7125714,17.4931429 27.6542857,15.5205714 C29.8371429,13.304 31.9182857,13.5702857 38.2794286,13.5702857" id="Fill-11" fill="#FFFFFF"></path>
                </g>

            </g>
        </g>
    </g>
</svg>