<?xml version="1.0" encoding="UTF-8" standalone="no"?>
<svg width="225px" height="61px" viewBox="0 0 225 61" version="1.1" xmlns="http://www.w3.org/2000/svg" xmlns:xlink="http://www.w3.org/1999/xlink" xmlns:sketch="http://www.bohemiancoding.com/sketch/ns">
    <!-- Generator: Sketch 3.2.2 (9983) - http://www.bohemiancoding.com/sketch -->
    <title>Google +</title>
    <desc>Created with Sketch.</desc>
    <defs></defs>
    <g id="Page-1" stroke="none" stroke-width="1" fill="none" fill-rule="evenodd" sketch:type="MSPage">
        <g id="com" sketch:type="MSArtboardGroup" transform="translate(-489.000000, -148.000000)">
            <g id="Google-+" sketch:type="MSLayerGroup" transform="translate(489.000000, 148.556606)">
                <rect id="Rectangle-29" fill="#DD4B39" sketch:type="MSShapeGroup" x="0" y="0" width="225" height="60"></rect>

                <g id="Group" transform="translate(1.000000, 0.000000)" sketch:type="MSShapeGroup">
                    <path d="M59.5537143,29.996 C59.5537143,46.4068571 46.2502857,59.7102857 29.84,59.7102857 C13.4291429,59.7102857 0.125714286,46.4068571 0.125714286,29.996 C0.125714286,13.5851429 13.4291429,0.281714286 29.84,0.281714286 C46.2502857,0.281714286 59.5537143,13.5851429 59.5537143,29.996" id="Fill-1" fill="#DD4B39"></path>
                    <path d="M41.2114286,22.9177143 L41.2114286,27.9628571 L39.144,27.9628571 L39.144,22.9177143 L33.9748571,22.9177143 L33.9748571,20.8554286 L39.144,20.8554286 L39.144,15.8108571 L41.2114286,15.8108571 L41.2114286,20.8554286 L46.3805714,20.8554286 L46.3805714,22.9177143 L41.2114286,22.9177143 M26.9148571,17.8097143 C28.7497143,18.8251429 29.8245714,20.4737143 29.8245714,22.6297143 C29.8245714,24.4411429 28.7057143,25.868 27.2634286,26.9754286 C25.856,28.0548571 25.5885714,28.508 25.5885714,29.4262857 C25.5885714,30.2097143 27.0965714,31.544 27.8851429,32.0914286 C30.1902857,33.6931429 30.8714286,35.1794286 30.8714286,37.66 C30.8714286,40.7554286 27.8851429,44.2131429 22.3617143,44.2131429 C17.516,44.2131429 13.2988571,41.8948571 13.2988571,38.8 C13.2988571,35.6571429 17.1577143,32.624 22.0028571,32.624 C22.5308571,32.624 23.0142857,32.6034286 23.5148571,32.6034286 C22.8514286,31.9697143 22.3274286,31.1811429 22.3274286,30.2234286 C22.3274286,29.6565714 22.5125714,29.0851429 22.7697143,28.5994286 C22.5062857,28.6182857 22.2377143,28.5754286 21.9611429,28.5754286 C17.9817143,28.5754286 15.3154286,25.6994286 15.3154286,22.2537143 C15.3154286,18.8828571 18.9971429,15.7788571 22.9091429,15.7788571 L31.6337143,15.7788571 L29.6811429,17.8097143 L26.9148571,17.8097143 M22.9251429,33.4262857 C19.5765714,33.3914286 16.576,35.432 16.576,37.8834286 C16.576,40.3834286 18.9954286,42.212 22.344,42.212 C27.0514286,42.212 28.6931429,40.512 28.6931429,38.0114286 C28.6931429,37.7097143 28.6548571,37.4142857 28.5857143,37.1268571 C28.2171429,35.7114286 26.9142857,35.0108571 25.096,33.7691429 C24.4342857,33.5582857 23.7068571,33.4354286 22.9251429,33.4262857 M26.688,22.668 C26.2994286,19.7702857 24.0657143,17.4428571 21.8177143,17.3771429 C19.5702857,17.312 18.0634286,19.5297143 18.452,22.4291429 C18.8394286,25.3285714 20.976,27.7331429 23.224,27.7982857 C25.4702857,27.8645714 27.0754286,25.5685714 26.688,22.668" id="Fill-2" fill="#FFFFFF"></path>
                    <path d="M29.7245714,59.7102857 L29.7634286,59.7102857 L29.8017143,59.7102857 L29.7245714,59.7102857 M29.7634286,0.281714286 L29.7251429,0.281714286 L29.8017143,0.281714286 L29.7634286,0.281714286" id="Fill-3" fill="#FFFFFF"></path>
                    <path d="M29.3822857,33.3497143 L29.3822857,41.4034286 C30.3645714,40.272 30.8714286,38.9354286 30.8714286,37.66 C30.8714286,35.8308571 30.5011429,34.5422857 29.3822857,33.3497143 M29.3822857,20.4125714 L29.3822857,24.5342857 C29.6622857,23.9525714 29.8245714,23.3188571 29.8245714,22.6297143 C29.8245714,21.816 29.6714286,21.0748571 29.3822857,20.4125714 M41.2114286,15.8108571 L39.144,15.8108571 L39.144,20.8554286 L33.9748571,20.8554286 L33.9748571,22.9177143 L39.144,22.9177143 L39.144,27.9628571 L41.2114286,27.9628571 L41.2114286,22.9177143 L46.3805714,22.9177143 L46.3805714,20.8554286 L41.2114286,20.8554286 L41.2114286,15.8108571 M31.6337143,15.7788571 L29.3822857,15.7788571 L29.3822857,17.8097143 L29.6811429,17.8097143 L31.6337143,15.7788571" id="Fill-5" fill="#FFFFFF"></path>
                </g>
            </g>
        </g>
    </g>
</svg>