<?xml version="1.0" encoding="UTF-8" standalone="no"?>
<svg width="225px" height="61px" viewBox="0 0 225 61" version="1.1" xmlns="http://www.w3.org/2000/svg" xmlns:xlink="http://www.w3.org/1999/xlink" xmlns:sketch="http://www.bohemiancoding.com/sketch/ns">
    <!-- Generator: Sketch 3.2.2 (9983) - http://www.bohemiancoding.com/sketch -->
    <title>vk</title>
    <desc>Created with Sketch.</desc>
    <defs></defs>
    <g id="Page-1" stroke="none" stroke-width="1" fill="none" fill-rule="evenodd" sketch:type="MSPage">
        <g id="com" sketch:type="MSArtboardGroup" transform="translate(-990.000000, -149.000000)">
            <g id="vk" sketch:type="MSLayerGroup" transform="translate(990.000000, 149.000000)">
                <rect id="Rectangle-29" fill="#4D75A3" sketch:type="MSShapeGroup" x="0" y="0.281714286" width="62" height="60"></rect>

                <g id="Fill-14-+-Fill-16" transform="translate(1.000000, 0.281714)" sketch:type="MSShapeGroup">
                    <path d="M59.7497143,29.996 C59.7497143,46.4068571 46.4462857,59.7102857 30.0354286,59.7102857 C13.6251429,59.7102857 0.321142857,46.4068571 0.321142857,29.996 C0.321142857,13.5851429 13.6251429,0.281714286 30.0354286,0.281714286 C46.4462857,0.281714286 59.7497143,13.5851429 59.7497143,29.996" id="Fill-14" fill="#4D75A3"></path>
                    <path d="M29.6582857,39.9388571 L31.7594286,39.9388571 C31.7594286,39.9388571 32.3942857,39.8685714 32.7182857,39.5194286 C33.0165714,39.1988571 33.0068571,38.5965714 33.0068571,38.5965714 C33.0068571,38.5965714 32.9657143,35.7777143 34.2742857,35.3622857 C35.5645714,34.9531429 37.2205714,38.0874286 38.976,39.292 C40.3034286,40.204 41.3125714,40.0045714 41.3125714,40.0045714 L46.0068571,39.9388571 C46.0068571,39.9388571 48.4622857,39.7874286 47.2977143,37.8565714 C47.2022857,37.6988571 46.6194286,36.4285714 43.8074286,33.8182857 C40.864,31.0862857 41.2582857,31.528 44.804,26.8022857 C46.9634286,23.9245714 47.8262857,22.1674286 47.5565714,21.4148571 C47.2994286,20.6982857 45.7114286,20.8874286 45.7114286,20.8874286 L40.4262857,20.92 C40.4262857,20.92 40.0337143,20.8668571 39.7434286,21.0405714 C39.4594286,21.2102857 39.2771429,21.6074286 39.2771429,21.6074286 C39.2771429,21.6074286 38.44,23.8342857 37.3251429,25.7285714 C34.9714286,29.7251429 34.0302857,29.9365714 33.6457143,29.688 C32.7502857,29.1097143 32.9742857,27.3645714 32.9742857,26.1251429 C32.9742857,22.252 33.5617143,20.6371429 31.8302857,20.2188571 C31.256,20.0805714 30.8325714,19.9885714 29.3634286,19.9737143 C27.4771429,19.9548571 25.8811429,19.9794286 24.9777143,20.4222857 C24.376,20.7171429 23.912,21.3725714 24.1948571,21.4108571 C24.5445714,21.4571429 25.3354286,21.624 25.7548571,22.1948571 C26.2965714,22.932 26.2777143,24.5862857 26.2777143,24.5862857 C26.2777143,24.5862857 26.5885714,29.1457143 25.5508571,29.712 C24.8382857,30.1 23.8611429,29.3074286 21.7628571,25.6817143 C20.688,23.8245714 19.876,21.7714286 19.876,21.7714286 C19.876,21.7714286 19.7194286,21.3874286 19.4405714,21.1822857 C19.1017143,20.9337143 18.6285714,20.8548571 18.6285714,20.8548571 L13.6057143,20.8874286 C13.6057143,20.8874286 12.852,20.9085714 12.5748571,21.2365714 C12.3285714,21.528 12.5554286,22.1314286 12.5554286,22.1314286 C12.5554286,22.1314286 16.4874286,31.3308571 20.94,35.9668571 C25.0228571,40.2177143 29.6582857,39.9388571 29.6582857,39.9388571" id="Fill-16" fill="#FFFFFF"></path>
                </g>
            </g>
        </g>
    </g>
</svg>